<mxfile host="65bd71144e">
    <diagram id="SuACJpXSYvjo_u155LEw" name="Activity Diagram">
        <mxGraphModel dx="1267" dy="1022" grid="1" gridSize="10" guides="1" tooltips="1" connect="1" arrows="1" fold="1" page="1" pageScale="1" pageWidth="1169" pageHeight="1654" background="none" math="0" shadow="0">
            <root>
                <mxCell id="0"/>
                <mxCell id="1" parent="0"/>
                <mxCell id="9oTE2E-VxWl69fKEgp1D-8" style="edgeStyle=none;html=1;exitX=0.5;exitY=1;exitDx=0;exitDy=0;exitPerimeter=0;" parent="1" source="9oTE2E-VxWl69fKEgp1D-7" edge="1">
                    <mxGeometry relative="1" as="geometry">
                        <mxPoint x="788" y="250" as="targetPoint"/>
                    </mxGeometry>
                </mxCell>
                <mxCell id="9oTE2E-VxWl69fKEgp1D-7" value="" style="strokeWidth=2;html=1;shape=mxgraph.flowchart.start_2;whiteSpace=wrap;fillColor=none;" parent="1" vertex="1">
                    <mxGeometry x="763" y="160" width="50" height="50" as="geometry"/>
                </mxCell>
                <mxCell id="9oTE2E-VxWl69fKEgp1D-11" style="edgeStyle=none;html=1;" parent="1" source="9oTE2E-VxWl69fKEgp1D-10" target="9oTE2E-VxWl69fKEgp1D-12" edge="1">
                    <mxGeometry relative="1" as="geometry">
                        <mxPoint x="788" y="370" as="targetPoint"/>
                    </mxGeometry>
                </mxCell>
                <mxCell id="9oTE2E-VxWl69fKEgp1D-10" value="DOMContentLoaded" style="rounded=1;whiteSpace=wrap;html=1;strokeWidth=1;fillColor=none;" parent="1" vertex="1">
                    <mxGeometry x="728" y="250" width="120" height="60" as="geometry"/>
                </mxCell>
                <mxCell id="9oTE2E-VxWl69fKEgp1D-13" style="edgeStyle=none;html=1;" parent="1" source="9oTE2E-VxWl69fKEgp1D-12" target="9oTE2E-VxWl69fKEgp1D-14" edge="1">
                    <mxGeometry relative="1" as="geometry">
                        <mxPoint x="788" y="470" as="targetPoint"/>
                    </mxGeometry>
                </mxCell>
                <mxCell id="9oTE2E-VxWl69fKEgp1D-38" style="edgeStyle=none;html=1;exitX=0;exitY=0.5;exitDx=0;exitDy=0;entryX=1;entryY=0.5;entryDx=0;entryDy=0;" parent="1" source="9oTE2E-VxWl69fKEgp1D-12" target="9oTE2E-VxWl69fKEgp1D-21" edge="1">
                    <mxGeometry relative="1" as="geometry"/>
                </mxCell>
                <mxCell id="9oTE2E-VxWl69fKEgp1D-12" value="Start();" style="rounded=1;whiteSpace=wrap;html=1;strokeWidth=1;fillColor=none;" parent="1" vertex="1">
                    <mxGeometry x="728" y="340" width="120" height="60" as="geometry"/>
                </mxCell>
                <mxCell id="9oTE2E-VxWl69fKEgp1D-22" style="edgeStyle=none;html=1;" parent="1" source="9oTE2E-VxWl69fKEgp1D-14" target="9oTE2E-VxWl69fKEgp1D-23" edge="1">
                    <mxGeometry relative="1" as="geometry">
                        <mxPoint x="788" y="540" as="targetPoint"/>
                    </mxGeometry>
                </mxCell>
                <mxCell id="9oTE2E-VxWl69fKEgp1D-14" value="LoadJSON();" style="rounded=1;whiteSpace=wrap;html=1;strokeWidth=1;fillColor=none;" parent="1" vertex="1">
                    <mxGeometry x="728" y="440" width="120" height="60" as="geometry"/>
                </mxCell>
                <mxCell id="9oTE2E-VxWl69fKEgp1D-15" value="allStudents" style="rounded=0;whiteSpace=wrap;html=1;strokeWidth=1;fillColor=none;" parent="1" vertex="1">
                    <mxGeometry x="727.5" y="650" width="120" height="60" as="geometry"/>
                </mxCell>
                <mxCell id="19" style="edgeStyle=none;html=1;entryX=0.5;entryY=0;entryDx=0;entryDy=0;" edge="1" parent="1" source="9oTE2E-VxWl69fKEgp1D-16" target="12">
                    <mxGeometry relative="1" as="geometry"/>
                </mxCell>
                <mxCell id="9oTE2E-VxWl69fKEgp1D-16" value="expelledStudents" style="rounded=0;whiteSpace=wrap;html=1;strokeWidth=1;fillColor=none;" parent="1" vertex="1">
                    <mxGeometry x="963" y="990" width="120" height="60" as="geometry"/>
                </mxCell>
                <mxCell id="22" style="edgeStyle=none;html=1;entryX=0.503;entryY=-0.048;entryDx=0;entryDy=0;entryPerimeter=0;" edge="1" parent="1" source="9oTE2E-VxWl69fKEgp1D-17" target="21">
                    <mxGeometry relative="1" as="geometry"/>
                </mxCell>
                <mxCell id="9oTE2E-VxWl69fKEgp1D-17" value="hackTheSystem();" style="rounded=1;whiteSpace=wrap;html=1;strokeWidth=1;fillColor=none;" parent="1" vertex="1">
                    <mxGeometry x="186" y="840" width="120" height="60" as="geometry"/>
                </mxCell>
                <mxCell id="25" style="edgeStyle=none;html=1;entryX=0.5;entryY=0;entryDx=0;entryDy=0;" edge="1" parent="1" source="9oTE2E-VxWl69fKEgp1D-19" target="26">
                    <mxGeometry relative="1" as="geometry">
                        <mxPoint x="166" y="1310" as="targetPoint"/>
                        <Array as="points">
                            <mxPoint x="166" y="1310"/>
                            <mxPoint x="246" y="1310"/>
                        </Array>
                    </mxGeometry>
                </mxCell>
                <mxCell id="9oTE2E-VxWl69fKEgp1D-19" value="randonBloodStatus();" style="rounded=1;whiteSpace=wrap;html=1;strokeWidth=1;fillColor=none;" parent="1" vertex="1">
                    <mxGeometry x="106" y="1032.5" width="120" height="60" as="geometry"/>
                </mxCell>
                <mxCell id="SYi3XJE8frnawodE4Hxu-3" style="edgeStyle=none;html=1;entryX=0;entryY=0.5;entryDx=0;entryDy=0;" parent="1" source="9oTE2E-VxWl69fKEgp1D-20" target="9oTE2E-VxWl69fKEgp1D-26" edge="1">
                    <mxGeometry relative="1" as="geometry">
                        <Array as="points">
                            <mxPoint x="126" y="620"/>
                        </Array>
                    </mxGeometry>
                </mxCell>
                <mxCell id="9oTE2E-VxWl69fKEgp1D-20" value="searchStudent(student;)" style="rounded=1;whiteSpace=wrap;html=1;strokeWidth=1;fillColor=none;" parent="1" vertex="1">
                    <mxGeometry x="56" y="335" width="140" height="70" as="geometry"/>
                </mxCell>
                <mxCell id="9oTE2E-VxWl69fKEgp1D-40" style="edgeStyle=none;html=1;exitX=0.5;exitY=1;exitDx=0;exitDy=0;entryX=0.5;entryY=0;entryDx=0;entryDy=0;" parent="1" source="9oTE2E-VxWl69fKEgp1D-21" target="9oTE2E-VxWl69fKEgp1D-24" edge="1">
                    <mxGeometry relative="1" as="geometry">
                        <Array as="points">
                            <mxPoint x="206" y="400"/>
                        </Array>
                    </mxGeometry>
                </mxCell>
                <mxCell id="9oTE2E-VxWl69fKEgp1D-41" style="edgeStyle=none;html=1;exitX=0.5;exitY=1;exitDx=0;exitDy=0;entryX=0.5;entryY=0;entryDx=0;entryDy=0;" parent="1" source="9oTE2E-VxWl69fKEgp1D-21" target="9oTE2E-VxWl69fKEgp1D-25" edge="1">
                    <mxGeometry relative="1" as="geometry">
                        <Array as="points">
                            <mxPoint x="536" y="400"/>
                        </Array>
                    </mxGeometry>
                </mxCell>
                <mxCell id="SYi3XJE8frnawodE4Hxu-2" style="edgeStyle=none;html=1;entryX=1;entryY=0.5;entryDx=0;entryDy=0;" parent="1" source="9oTE2E-VxWl69fKEgp1D-21" target="9oTE2E-VxWl69fKEgp1D-20" edge="1">
                    <mxGeometry relative="1" as="geometry"/>
                </mxCell>
                <mxCell id="SYi3XJE8frnawodE4Hxu-4" style="edgeStyle=none;html=1;entryX=0.5;entryY=0;entryDx=0;entryDy=0;" parent="1" source="9oTE2E-VxWl69fKEgp1D-21" target="9oTE2E-VxWl69fKEgp1D-27" edge="1">
                    <mxGeometry relative="1" as="geometry"/>
                </mxCell>
                <mxCell id="9oTE2E-VxWl69fKEgp1D-21" value="registerBtn();" style="rounded=1;whiteSpace=wrap;html=1;strokeWidth=1;fillColor=none;" parent="1" vertex="1">
                    <mxGeometry x="308" y="340" width="120" height="60" as="geometry"/>
                </mxCell>
                <mxCell id="9oTE2E-VxWl69fKEgp1D-31" style="edgeStyle=none;html=1;entryX=0.5;entryY=0;entryDx=0;entryDy=0;" parent="1" source="9oTE2E-VxWl69fKEgp1D-23" target="9oTE2E-VxWl69fKEgp1D-28" edge="1">
                    <mxGeometry relative="1" as="geometry"/>
                </mxCell>
                <mxCell id="9oTE2E-VxWl69fKEgp1D-35" style="edgeStyle=none;html=1;entryX=0.5;entryY=0;entryDx=0;entryDy=0;" parent="1" source="9oTE2E-VxWl69fKEgp1D-23" target="9oTE2E-VxWl69fKEgp1D-29" edge="1">
                    <mxGeometry relative="1" as="geometry">
                        <Array as="points">
                            <mxPoint x="1023" y="575"/>
                        </Array>
                    </mxGeometry>
                </mxCell>
                <mxCell id="9oTE2E-VxWl69fKEgp1D-23" value="prepareObjects(studentData, bloodData);" style="rounded=1;whiteSpace=wrap;html=1;strokeWidth=1;fillColor=none;" parent="1" vertex="1">
                    <mxGeometry x="700" y="530" width="175" height="90" as="geometry"/>
                </mxCell>
                <mxCell id="9oTE2E-VxWl69fKEgp1D-42" style="edgeStyle=none;html=1;entryX=0;entryY=0.5;entryDx=0;entryDy=0;" parent="1" source="9oTE2E-VxWl69fKEgp1D-24" target="9oTE2E-VxWl69fKEgp1D-26" edge="1">
                    <mxGeometry relative="1" as="geometry">
                        <Array as="points">
                            <mxPoint x="206" y="620"/>
                        </Array>
                    </mxGeometry>
                </mxCell>
                <mxCell id="9oTE2E-VxWl69fKEgp1D-24" value="selectFilter(event);" style="rounded=1;whiteSpace=wrap;html=1;strokeWidth=1;fillColor=none;" parent="1" vertex="1">
                    <mxGeometry x="146" y="460" width="120" height="60" as="geometry"/>
                </mxCell>
                <mxCell id="9oTE2E-VxWl69fKEgp1D-43" style="edgeStyle=none;html=1;entryX=1;entryY=0.5;entryDx=0;entryDy=0;" parent="1" source="9oTE2E-VxWl69fKEgp1D-25" target="9oTE2E-VxWl69fKEgp1D-26" edge="1">
                    <mxGeometry relative="1" as="geometry">
                        <Array as="points">
                            <mxPoint x="536" y="620"/>
                        </Array>
                    </mxGeometry>
                </mxCell>
                <mxCell id="9oTE2E-VxWl69fKEgp1D-25" value="selectSort(event);" style="rounded=1;whiteSpace=wrap;html=1;strokeWidth=1;fillColor=none;" parent="1" vertex="1">
                    <mxGeometry x="476" y="460" width="120" height="60" as="geometry"/>
                </mxCell>
                <mxCell id="SYi3XJE8frnawodE4Hxu-1" style="edgeStyle=none;html=1;entryX=0;entryY=0.5;entryDx=0;entryDy=0;" parent="1" source="9oTE2E-VxWl69fKEgp1D-26" target="9oTE2E-VxWl69fKEgp1D-28" edge="1">
                    <mxGeometry relative="1" as="geometry">
                        <Array as="points">
                            <mxPoint x="368" y="790"/>
                        </Array>
                    </mxGeometry>
                </mxCell>
                <mxCell id="16" style="edgeStyle=none;html=1;exitX=1;exitY=0.25;exitDx=0;exitDy=0;entryX=0.25;entryY=1;entryDx=0;entryDy=0;" edge="1" parent="1" source="9oTE2E-VxWl69fKEgp1D-26" target="9oTE2E-VxWl69fKEgp1D-25">
                    <mxGeometry relative="1" as="geometry">
                        <Array as="points">
                            <mxPoint x="506" y="605"/>
                        </Array>
                    </mxGeometry>
                </mxCell>
                <mxCell id="17" style="edgeStyle=none;html=1;exitX=0;exitY=0.25;exitDx=0;exitDy=0;entryX=0.75;entryY=1;entryDx=0;entryDy=0;" edge="1" parent="1" source="9oTE2E-VxWl69fKEgp1D-26" target="9oTE2E-VxWl69fKEgp1D-24">
                    <mxGeometry relative="1" as="geometry">
                        <Array as="points">
                            <mxPoint x="236" y="605"/>
                        </Array>
                    </mxGeometry>
                </mxCell>
                <mxCell id="9oTE2E-VxWl69fKEgp1D-26" value="buildList();" style="rounded=1;whiteSpace=wrap;html=1;strokeWidth=1;fillColor=none;" parent="1" vertex="1">
                    <mxGeometry x="308" y="590" width="120" height="60" as="geometry"/>
                </mxCell>
                <mxCell id="SYi3XJE8frnawodE4Hxu-5" style="edgeStyle=none;html=1;entryX=0.5;entryY=0;entryDx=0;entryDy=0;" parent="1" source="9oTE2E-VxWl69fKEgp1D-27" target="9oTE2E-VxWl69fKEgp1D-26" edge="1">
                    <mxGeometry relative="1" as="geometry"/>
                </mxCell>
                <mxCell id="9oTE2E-VxWl69fKEgp1D-27" value="makePrefect(selectedStudent);" style="rounded=1;whiteSpace=wrap;html=1;strokeWidth=1;fillColor=none;" parent="1" vertex="1">
                    <mxGeometry x="278" y="450" width="180" height="80" as="geometry"/>
                </mxCell>
                <mxCell id="9oTE2E-VxWl69fKEgp1D-32" style="edgeStyle=none;html=1;entryX=0.5;entryY=0;entryDx=0;entryDy=0;" parent="1" source="9oTE2E-VxWl69fKEgp1D-28" target="9oTE2E-VxWl69fKEgp1D-30" edge="1">
                    <mxGeometry relative="1" as="geometry"/>
                </mxCell>
                <mxCell id="9oTE2E-VxWl69fKEgp1D-28" value="displayList(student);" style="rounded=1;whiteSpace=wrap;html=1;strokeWidth=1;fillColor=none;" parent="1" vertex="1">
                    <mxGeometry x="697.5" y="750" width="180" height="80" as="geometry"/>
                </mxCell>
                <mxCell id="9oTE2E-VxWl69fKEgp1D-36" style="edgeStyle=none;html=1;" parent="1" source="9oTE2E-VxWl69fKEgp1D-29" target="9oTE2E-VxWl69fKEgp1D-37" edge="1">
                    <mxGeometry relative="1" as="geometry">
                        <mxPoint x="1023" y="880" as="targetPoint"/>
                    </mxGeometry>
                </mxCell>
                <mxCell id="9oTE2E-VxWl69fKEgp1D-29" value="showPopUp(student);" style="rounded=1;whiteSpace=wrap;html=1;strokeWidth=1;fillColor=none;" parent="1" vertex="1">
                    <mxGeometry x="933" y="750" width="180" height="80" as="geometry"/>
                </mxCell>
                <mxCell id="9oTE2E-VxWl69fKEgp1D-45" style="edgeStyle=none;html=1;entryX=0.5;entryY=0;entryDx=0;entryDy=0;entryPerimeter=0;" parent="1" source="9oTE2E-VxWl69fKEgp1D-30" target="9oTE2E-VxWl69fKEgp1D-44" edge="1">
                    <mxGeometry relative="1" as="geometry"/>
                </mxCell>
                <mxCell id="9oTE2E-VxWl69fKEgp1D-30" value="displayStudent(student);" style="rounded=1;whiteSpace=wrap;html=1;strokeWidth=1;fillColor=none;" parent="1" vertex="1">
                    <mxGeometry x="697.5" y="880" width="180" height="80" as="geometry"/>
                </mxCell>
                <mxCell id="18" style="edgeStyle=none;html=1;entryX=0.5;entryY=0;entryDx=0;entryDy=0;" edge="1" parent="1" source="9oTE2E-VxWl69fKEgp1D-37" target="9oTE2E-VxWl69fKEgp1D-16">
                    <mxGeometry relative="1" as="geometry"/>
                </mxCell>
                <mxCell id="9oTE2E-VxWl69fKEgp1D-37" value="expellStudent();" style="rounded=1;whiteSpace=wrap;html=1;strokeWidth=1;fillColor=none;" parent="1" vertex="1">
                    <mxGeometry x="953" y="897" width="140" height="70" as="geometry"/>
                </mxCell>
                <mxCell id="9oTE2E-VxWl69fKEgp1D-44" value="" style="verticalLabelPosition=bottom;verticalAlign=top;html=1;shape=mxgraph.flowchart.or;strokeWidth=1;fillColor=none;" parent="1" vertex="1">
                    <mxGeometry x="762.5" y="1045" width="50" height="50" as="geometry"/>
                </mxCell>
                <mxCell id="9" style="edgeStyle=none;html=1;entryX=0.5;entryY=0;entryDx=0;entryDy=0;" edge="1" parent="1" source="2" target="7">
                    <mxGeometry relative="1" as="geometry"/>
                </mxCell>
                <mxCell id="2" value="startCheckingInt();" style="rounded=1;whiteSpace=wrap;html=1;strokeWidth=1;fillColor=none;" vertex="1" parent="1">
                    <mxGeometry x="278" y="1032.5" width="120" height="60" as="geometry"/>
                </mxCell>
                <mxCell id="27" style="edgeStyle=none;html=1;entryX=0.5;entryY=0;entryDx=0;entryDy=0;" edge="1" parent="1" source="3" target="26">
                    <mxGeometry relative="1" as="geometry">
                        <Array as="points">
                            <mxPoint x="338" y="1310"/>
                            <mxPoint x="246" y="1310"/>
                        </Array>
                    </mxGeometry>
                </mxCell>
                <mxCell id="3" value="removeInq();" style="rounded=1;whiteSpace=wrap;html=1;strokeWidth=1;fillColor=none;" vertex="1" parent="1">
                    <mxGeometry x="278" y="1217.5" width="120" height="60" as="geometry"/>
                </mxCell>
                <mxCell id="10" style="edgeStyle=none;html=1;entryX=0.497;entryY=-0.039;entryDx=0;entryDy=0;entryPerimeter=0;" edge="1" parent="1" source="7" target="3">
                    <mxGeometry relative="1" as="geometry"/>
                </mxCell>
                <mxCell id="7" value="interval" style="rounded=0;whiteSpace=wrap;html=1;strokeWidth=1;fillColor=none;" vertex="1" parent="1">
                    <mxGeometry x="278" y="1122.5" width="120" height="60" as="geometry"/>
                </mxCell>
                <mxCell id="20" style="edgeStyle=none;html=1;entryX=1;entryY=0.5;entryDx=0;entryDy=0;" edge="1" parent="1" source="12" target="9oTE2E-VxWl69fKEgp1D-28">
                    <mxGeometry relative="1" as="geometry">
                        <Array as="points">
                            <mxPoint x="906" y="1125"/>
                            <mxPoint x="906" y="790"/>
                        </Array>
                    </mxGeometry>
                </mxCell>
                <mxCell id="12" value="buildList();" style="rounded=1;whiteSpace=wrap;html=1;strokeWidth=1;fillColor=none;" vertex="1" parent="1">
                    <mxGeometry x="963" y="1095" width="120" height="60" as="geometry"/>
                </mxCell>
                <mxCell id="23" style="edgeStyle=none;html=1;entryX=0.5;entryY=0;entryDx=0;entryDy=0;" edge="1" parent="1" source="21" target="2">
                    <mxGeometry relative="1" as="geometry">
                        <Array as="points">
                            <mxPoint x="256" y="1010"/>
                            <mxPoint x="338" y="1010"/>
                        </Array>
                    </mxGeometry>
                </mxCell>
                <mxCell id="24" style="edgeStyle=none;html=1;entryX=0.5;entryY=0;entryDx=0;entryDy=0;" edge="1" parent="1" source="21" target="9oTE2E-VxWl69fKEgp1D-19">
                    <mxGeometry relative="1" as="geometry">
                        <Array as="points">
                            <mxPoint x="236" y="1010"/>
                            <mxPoint x="166" y="1010"/>
                        </Array>
                    </mxGeometry>
                </mxCell>
                <mxCell id="21" value="Create &quot;me&quot; and push to allStudents" style="rounded=1;whiteSpace=wrap;html=1;" vertex="1" parent="1">
                    <mxGeometry x="176" y="920" width="140" height="70" as="geometry"/>
                </mxCell>
                <mxCell id="28" style="edgeStyle=none;html=1;entryX=0;entryY=0.5;entryDx=0;entryDy=0;" edge="1" parent="1" source="26" target="9oTE2E-VxWl69fKEgp1D-28">
                    <mxGeometry relative="1" as="geometry">
                        <Array as="points">
                            <mxPoint x="616" y="1370"/>
                            <mxPoint x="616" y="790"/>
                        </Array>
                    </mxGeometry>
                </mxCell>
                <mxCell id="26" value="buildList();" style="rounded=1;whiteSpace=wrap;html=1;strokeWidth=1;fillColor=none;" vertex="1" parent="1">
                    <mxGeometry x="186" y="1340" width="120" height="60" as="geometry"/>
                </mxCell>
            </root>
        </mxGraphModel>
    </diagram>
    <diagram id="p37dCWMio7YdirO0wdeM" name="Expelling">
        <mxGraphModel dx="1816" dy="1226" grid="1" gridSize="10" guides="1" tooltips="1" connect="0" arrows="1" fold="1" page="1" pageScale="1" pageWidth="1169" pageHeight="1654" background="none" math="0" shadow="0">
            <root>
                <mxCell id="0"/>
                <mxCell id="1" parent="0"/>
                <mxCell id="DPiy2FIpMWvSjcihFfEI-4" style="edgeStyle=none;html=1;entryX=0.5;entryY=0;entryDx=0;entryDy=0;" parent="1" target="DPiy2FIpMWvSjcihFfEI-5" edge="1">
                    <mxGeometry relative="1" as="geometry">
                        <mxPoint x="560" y="240" as="targetPoint"/>
                        <mxPoint x="560" y="200" as="sourcePoint"/>
                    </mxGeometry>
                </mxCell>
                <mxCell id="DPiy2FIpMWvSjcihFfEI-3" value="" style="endArrow=classic;html=1;exitX=0.5;exitY=1;exitDx=0;exitDy=0;entryX=0.5;entryY=0;entryDx=0;entryDy=0;" parent="1" target="DPiy2FIpMWvSjcihFfEI-6" edge="1">
                    <mxGeometry width="50" height="50" relative="1" as="geometry">
                        <mxPoint x="560" y="100" as="sourcePoint"/>
                        <mxPoint x="560" y="130" as="targetPoint"/>
                    </mxGeometry>
                </mxCell>
                <mxCell id="DPiy2FIpMWvSjcihFfEI-7" style="edgeStyle=none;html=1;" parent="1" source="DPiy2FIpMWvSjcihFfEI-5" edge="1">
                    <mxGeometry relative="1" as="geometry">
                        <mxPoint x="560" y="370" as="targetPoint"/>
                    </mxGeometry>
                </mxCell>
                <mxCell id="DPiy2FIpMWvSjcihFfEI-5" value="AddEventListeners" style="rounded=1;whiteSpace=wrap;html=1;" parent="1" vertex="1">
                    <mxGeometry x="500" y="250" width="120" height="60" as="geometry"/>
                </mxCell>
                <mxCell id="DPiy2FIpMWvSjcihFfEI-6" value="Pop-up" style="rounded=1;whiteSpace=wrap;html=1;" parent="1" vertex="1">
                    <mxGeometry x="500" y="140" width="120" height="60" as="geometry"/>
                </mxCell>
                <mxCell id="DPiy2FIpMWvSjcihFfEI-12" style="edgeStyle=none;html=1;" parent="1" source="DPiy2FIpMWvSjcihFfEI-10" edge="1">
                    <mxGeometry relative="1" as="geometry">
                        <mxPoint x="560" y="490" as="targetPoint"/>
                    </mxGeometry>
                </mxCell>
                <mxCell id="DPiy2FIpMWvSjcihFfEI-10" value="Clicks&lt;br&gt;expel" style="shape=step;perimeter=stepPerimeter;whiteSpace=wrap;html=1;fixedSize=1;" parent="1" vertex="1">
                    <mxGeometry x="500" y="370" width="120" height="60" as="geometry"/>
                </mxCell>
                <mxCell id="DPiy2FIpMWvSjcihFfEI-14" value="If student === myself" style="text;html=1;align=center;verticalAlign=middle;resizable=0;points=[];autosize=1;strokeColor=none;fillColor=none;" parent="1" vertex="1">
                    <mxGeometry x="745" y="570" width="140" height="30" as="geometry"/>
                </mxCell>
                <mxCell id="DPiy2FIpMWvSjcihFfEI-27" style="edgeStyle=none;html=1;entryX=1;entryY=0.5;entryDx=0;entryDy=0;entryPerimeter=0;" parent="1" source="DPiy2FIpMWvSjcihFfEI-15" target="DPiy2FIpMWvSjcihFfEI-28" edge="1">
                    <mxGeometry relative="1" as="geometry">
                        <mxPoint x="630" y="1070" as="targetPoint"/>
                        <Array as="points">
                            <mxPoint x="740" y="1080"/>
                        </Array>
                    </mxGeometry>
                </mxCell>
                <mxCell id="DPiy2FIpMWvSjcihFfEI-15" value="Can't expel this&lt;br&gt;student" style="rounded=1;whiteSpace=wrap;html=1;" parent="1" vertex="1">
                    <mxGeometry x="680" y="720" width="120" height="60" as="geometry"/>
                </mxCell>
                <mxCell id="DPiy2FIpMWvSjcihFfEI-16" value="Else" style="text;html=1;align=center;verticalAlign=middle;resizable=0;points=[];autosize=1;strokeColor=none;fillColor=none;" parent="1" vertex="1">
                    <mxGeometry x="560" y="570" width="50" height="30" as="geometry"/>
                </mxCell>
                <mxCell id="DPiy2FIpMWvSjcihFfEI-18" style="edgeStyle=none;html=1;" parent="1" source="DPiy2FIpMWvSjcihFfEI-17" target="DPiy2FIpMWvSjcihFfEI-19" edge="1">
                    <mxGeometry relative="1" as="geometry">
                        <mxPoint x="560" y="720" as="targetPoint"/>
                    </mxGeometry>
                </mxCell>
                <mxCell id="DPiy2FIpMWvSjcihFfEI-17" value="Student is removed&amp;nbsp;&lt;br&gt;from current list" style="rounded=1;whiteSpace=wrap;html=1;" parent="1" vertex="1">
                    <mxGeometry x="500" y="620" width="120" height="60" as="geometry"/>
                </mxCell>
                <mxCell id="DPiy2FIpMWvSjcihFfEI-21" style="edgeStyle=none;html=1;entryX=0.5;entryY=0;entryDx=0;entryDy=0;" parent="1" source="DPiy2FIpMWvSjcihFfEI-19" target="DPiy2FIpMWvSjcihFfEI-20" edge="1">
                    <mxGeometry relative="1" as="geometry"/>
                </mxCell>
                <mxCell id="DPiy2FIpMWvSjcihFfEI-19" value="Student is pushed to&lt;br&gt;expelled list" style="rounded=1;whiteSpace=wrap;html=1;" parent="1" vertex="1">
                    <mxGeometry x="500" y="720" width="120" height="60" as="geometry"/>
                </mxCell>
                <mxCell id="DPiy2FIpMWvSjcihFfEI-24" style="edgeStyle=none;html=1;entryX=0.5;entryY=0;entryDx=0;entryDy=0;" parent="1" source="DPiy2FIpMWvSjcihFfEI-20" target="DPiy2FIpMWvSjcihFfEI-23" edge="1">
                    <mxGeometry relative="1" as="geometry"/>
                </mxCell>
                <mxCell id="DPiy2FIpMWvSjcihFfEI-20" value="Student object change to true in expelled and false prefect and inq. squad" style="rounded=1;whiteSpace=wrap;html=1;" parent="1" vertex="1">
                    <mxGeometry x="490" y="820" width="140" height="80" as="geometry"/>
                </mxCell>
                <mxCell id="DPiy2FIpMWvSjcihFfEI-26" style="edgeStyle=none;html=1;entryX=0.5;entryY=0;entryDx=0;entryDy=0;" parent="1" source="DPiy2FIpMWvSjcihFfEI-23" edge="1">
                    <mxGeometry relative="1" as="geometry">
                        <mxPoint x="560" y="1060" as="targetPoint"/>
                    </mxGeometry>
                </mxCell>
                <mxCell id="DPiy2FIpMWvSjcihFfEI-23" value="Call function to build new list, close pop-up and removeEventListener" style="rounded=1;whiteSpace=wrap;html=1;" parent="1" vertex="1">
                    <mxGeometry x="480" y="940" width="160" height="80" as="geometry"/>
                </mxCell>
                <mxCell id="DPiy2FIpMWvSjcihFfEI-28" value="" style="verticalLabelPosition=bottom;verticalAlign=top;html=1;shape=mxgraph.flowchart.or;strokeWidth=1;fillColor=none;" parent="1" vertex="1">
                    <mxGeometry x="540" y="1060" width="40" height="40" as="geometry"/>
                </mxCell>
                <mxCell id="DPiy2FIpMWvSjcihFfEI-29" value="" style="strokeWidth=1;html=1;shape=mxgraph.flowchart.start_2;whiteSpace=wrap;fillColor=none;" parent="1" vertex="1">
                    <mxGeometry x="540" y="60" width="40" height="40" as="geometry"/>
                </mxCell>
                <mxCell id="qNIHSwnweMuSqYIpe1ZW-2" style="edgeStyle=none;html=1;entryX=0.5;entryY=0;entryDx=0;entryDy=0;" parent="1" source="qNIHSwnweMuSqYIpe1ZW-1" target="DPiy2FIpMWvSjcihFfEI-17" edge="1">
                    <mxGeometry relative="1" as="geometry"/>
                </mxCell>
                <mxCell id="qNIHSwnweMuSqYIpe1ZW-3" style="edgeStyle=none;html=1;entryX=0.5;entryY=0;entryDx=0;entryDy=0;" parent="1" source="qNIHSwnweMuSqYIpe1ZW-1" target="DPiy2FIpMWvSjcihFfEI-15" edge="1">
                    <mxGeometry relative="1" as="geometry">
                        <Array as="points">
                            <mxPoint x="740" y="520"/>
                        </Array>
                    </mxGeometry>
                </mxCell>
                <mxCell id="qNIHSwnweMuSqYIpe1ZW-1" value="expellStudent();" style="rounded=1;whiteSpace=wrap;html=1;strokeWidth=1;fillColor=none;" parent="1" vertex="1">
                    <mxGeometry x="500" y="490" width="120" height="60" as="geometry"/>
                </mxCell>
            </root>
        </mxGraphModel>
    </diagram>
    <diagram id="97sEpwWZjMegxjQWsqqX" name="Prefect">
        <mxGraphModel dx="1513" dy="1022" grid="1" gridSize="10" guides="1" tooltips="1" connect="1" arrows="1" fold="1" page="1" pageScale="1" pageWidth="1169" pageHeight="1654" math="0" shadow="0">
            <root>
                <mxCell id="0"/>
                <mxCell id="1" parent="0"/>
                <mxCell id="J32MFvM9Q0yYz1H9cwbZ-1" style="edgeStyle=none;html=1;entryX=0.5;entryY=0;entryDx=0;entryDy=0;" parent="1" edge="1">
                    <mxGeometry relative="1" as="geometry">
                        <mxPoint x="559.5" y="130" as="targetPoint"/>
                        <mxPoint x="559.5" y="80" as="sourcePoint"/>
                    </mxGeometry>
                </mxCell>
                <mxCell id="J32MFvM9Q0yYz1H9cwbZ-20" value="" style="verticalLabelPosition=bottom;verticalAlign=top;html=1;shape=mxgraph.flowchart.or;strokeWidth=5;fillColor=none;" parent="1" vertex="1">
                    <mxGeometry x="540" y="787" width="40" height="40" as="geometry"/>
                </mxCell>
                <mxCell id="J32MFvM9Q0yYz1H9cwbZ-21" value="" style="strokeWidth=2;html=1;shape=mxgraph.flowchart.start_2;whiteSpace=wrap;fillColor=none;" parent="1" vertex="1">
                    <mxGeometry x="540" y="40" width="40" height="40" as="geometry"/>
                </mxCell>
                <mxCell id="DH8lI81kWhNunQYlf-FF-3" style="edgeStyle=none;html=1;" parent="1" source="DH8lI81kWhNunQYlf-FF-1" target="DH8lI81kWhNunQYlf-FF-4" edge="1">
                    <mxGeometry relative="1" as="geometry">
                        <mxPoint x="560" y="250" as="targetPoint"/>
                    </mxGeometry>
                </mxCell>
                <mxCell id="DH8lI81kWhNunQYlf-FF-1" value="makePrefect(selectedStudent);" style="rounded=1;whiteSpace=wrap;html=1;strokeWidth=1;fillColor=none;" parent="1" vertex="1">
                    <mxGeometry x="455" y="130" width="210" height="60" as="geometry"/>
                </mxCell>
                <mxCell id="DH8lI81kWhNunQYlf-FF-6" style="edgeStyle=none;html=1;" parent="1" source="DH8lI81kWhNunQYlf-FF-4" target="DH8lI81kWhNunQYlf-FF-7" edge="1">
                    <mxGeometry relative="1" as="geometry">
                        <mxPoint x="560" y="350" as="targetPoint"/>
                    </mxGeometry>
                </mxCell>
                <mxCell id="DH8lI81kWhNunQYlf-FF-4" value="Filter all prefects" style="rounded=1;whiteSpace=wrap;html=1;strokeWidth=1;fillColor=none;" parent="1" vertex="1">
                    <mxGeometry x="500" y="240" width="120" height="60" as="geometry"/>
                </mxCell>
                <mxCell id="DH8lI81kWhNunQYlf-FF-8" style="edgeStyle=none;html=1;" parent="1" source="DH8lI81kWhNunQYlf-FF-7" target="DH8lI81kWhNunQYlf-FF-9" edge="1">
                    <mxGeometry relative="1" as="geometry">
                        <mxPoint x="560" y="450" as="targetPoint"/>
                    </mxGeometry>
                </mxCell>
                <mxCell id="DH8lI81kWhNunQYlf-FF-7" value="Filter for same house and gender" style="rounded=1;whiteSpace=wrap;html=1;strokeWidth=1;fillColor=none;" parent="1" vertex="1">
                    <mxGeometry x="500" y="340" width="120" height="60" as="geometry"/>
                </mxCell>
                <mxCell id="DH8lI81kWhNunQYlf-FF-10" style="edgeStyle=none;html=1;" parent="1" source="DH8lI81kWhNunQYlf-FF-9" target="DH8lI81kWhNunQYlf-FF-11" edge="1">
                    <mxGeometry relative="1" as="geometry">
                        <mxPoint x="560" y="570" as="targetPoint"/>
                    </mxGeometry>
                </mxCell>
                <mxCell id="DH8lI81kWhNunQYlf-FF-9" value="&lt;span style=&quot;text-align: left;&quot;&gt;Check if there is winner of same gender&amp;nbsp;&lt;/span&gt;&lt;span style=&quot;text-align: left;&quot;&gt;and house, remove if necessary&amp;nbsp;&lt;/span&gt;" style="rounded=1;whiteSpace=wrap;html=1;strokeWidth=1;fillColor=none;" parent="1" vertex="1">
                    <mxGeometry x="475" y="440" width="170" height="80" as="geometry"/>
                </mxCell>
                <mxCell id="DH8lI81kWhNunQYlf-FF-12" style="edgeStyle=none;html=1;" parent="1" source="DH8lI81kWhNunQYlf-FF-11" target="DH8lI81kWhNunQYlf-FF-13" edge="1">
                    <mxGeometry relative="1" as="geometry">
                        <mxPoint x="560" y="690" as="targetPoint"/>
                    </mxGeometry>
                </mxCell>
                <mxCell id="DH8lI81kWhNunQYlf-FF-11" value="&lt;span style=&quot;text-align: left;&quot;&gt;&amp;nbsp;If no same gender winner, filter opposite&amp;nbsp;&lt;/span&gt;&lt;span style=&quot;text-align: left;&quot;&gt;gender and house and remove if necessary&lt;/span&gt;" style="rounded=1;whiteSpace=wrap;html=1;strokeWidth=1;fillColor=none;" parent="1" vertex="1">
                    <mxGeometry x="480" y="550" width="160" height="90" as="geometry"/>
                </mxCell>
                <mxCell id="DH8lI81kWhNunQYlf-FF-15" style="edgeStyle=none;html=1;" parent="1" source="DH8lI81kWhNunQYlf-FF-13" target="J32MFvM9Q0yYz1H9cwbZ-20" edge="1">
                    <mxGeometry relative="1" as="geometry"/>
                </mxCell>
                <mxCell id="DH8lI81kWhNunQYlf-FF-13" value="&lt;meta charset=&quot;utf-8&quot;&gt;&lt;span style=&quot;color: rgb(240, 240, 240); font-family: Helvetica; font-size: 12px; font-style: normal; font-variant-ligatures: normal; font-variant-caps: normal; font-weight: 400; letter-spacing: normal; orphans: 2; text-align: left; text-indent: 0px; text-transform: none; widows: 2; word-spacing: 0px; -webkit-text-stroke-width: 0px; background-color: rgb(42, 37, 47); text-decoration-thickness: initial; text-decoration-style: initial; text-decoration-color: initial; float: none; display: inline !important;&quot;&gt;Make selected student a winner&amp;nbsp;&lt;/span&gt;" style="rounded=1;whiteSpace=wrap;html=1;strokeWidth=1;fillColor=none;" parent="1" vertex="1">
                    <mxGeometry x="500" y="690" width="120" height="60" as="geometry"/>
                </mxCell>
            </root>
        </mxGraphModel>
    </diagram>
    <diagram id="MgBvabP_7It6nhyEhnWy" name="BloodStatus">
        <mxGraphModel dx="1211" dy="817" grid="1" gridSize="10" guides="1" tooltips="1" connect="1" arrows="1" fold="1" page="1" pageScale="1" pageWidth="1169" pageHeight="1654" math="0" shadow="0">
            <root>
                <mxCell id="0"/>
                <mxCell id="1" parent="0"/>
                <mxCell id="93ikKU7hIqFKgZI3E3Zn-1" style="edgeStyle=none;html=1;entryX=0.5;entryY=0;entryDx=0;entryDy=0;" parent="1" edge="1">
                    <mxGeometry relative="1" as="geometry">
                        <mxPoint x="559.5" y="130" as="targetPoint"/>
                        <mxPoint x="559.5" y="80" as="sourcePoint"/>
                    </mxGeometry>
                </mxCell>
                <mxCell id="93ikKU7hIqFKgZI3E3Zn-2" value="" style="verticalLabelPosition=bottom;verticalAlign=top;html=1;shape=mxgraph.flowchart.or;strokeWidth=5;fillColor=none;" parent="1" vertex="1">
                    <mxGeometry x="540" y="650" width="40" height="40" as="geometry"/>
                </mxCell>
                <mxCell id="93ikKU7hIqFKgZI3E3Zn-3" value="" style="strokeWidth=2;html=1;shape=mxgraph.flowchart.start_2;whiteSpace=wrap;fillColor=none;" parent="1" vertex="1">
                    <mxGeometry x="540" y="40" width="40" height="40" as="geometry"/>
                </mxCell>
                <mxCell id="93ikKU7hIqFKgZI3E3Zn-17" style="edgeStyle=none;html=1;" parent="1" source="93ikKU7hIqFKgZI3E3Zn-16" edge="1">
                    <mxGeometry relative="1" as="geometry">
                        <mxPoint x="560" y="250" as="targetPoint"/>
                    </mxGeometry>
                </mxCell>
                <mxCell id="93ikKU7hIqFKgZI3E3Zn-16" value="Fetch JSON with bloodStatus" style="rounded=1;whiteSpace=wrap;html=1;strokeWidth=1;fillColor=none;" parent="1" vertex="1">
                    <mxGeometry x="500" y="130" width="120" height="60" as="geometry"/>
                </mxCell>
                <mxCell id="93ikKU7hIqFKgZI3E3Zn-19" style="edgeStyle=none;html=1;" parent="1" source="93ikKU7hIqFKgZI3E3Zn-18" target="93ikKU7hIqFKgZI3E3Zn-20" edge="1">
                    <mxGeometry relative="1" as="geometry">
                        <mxPoint x="560" y="360" as="targetPoint"/>
                    </mxGeometry>
                </mxCell>
                <mxCell id="93ikKU7hIqFKgZI3E3Zn-18" value="prepareObject (bloodStauts);" style="rounded=1;whiteSpace=wrap;html=1;strokeWidth=1;fillColor=none;" parent="1" vertex="1">
                    <mxGeometry x="500" y="250" width="120" height="60" as="geometry"/>
                </mxCell>
                <mxCell id="93ikKU7hIqFKgZI3E3Zn-21" style="edgeStyle=none;html=1;startArrow=none;" parent="1" source="93ikKU7hIqFKgZI3E3Zn-24" edge="1">
                    <mxGeometry relative="1" as="geometry">
                        <mxPoint x="560" y="540" as="targetPoint"/>
                    </mxGeometry>
                </mxCell>
                <mxCell id="93ikKU7hIqFKgZI3E3Zn-22" style="edgeStyle=none;html=1;entryX=0;entryY=0.5;entryDx=0;entryDy=0;" parent="1" source="93ikKU7hIqFKgZI3E3Zn-20" target="93ikKU7hIqFKgZI3E3Zn-28" edge="1">
                    <mxGeometry relative="1" as="geometry">
                        <mxPoint x="360" y="530" as="targetPoint"/>
                        <Array as="points">
                            <mxPoint x="360" y="390"/>
                            <mxPoint x="360" y="570"/>
                        </Array>
                    </mxGeometry>
                </mxCell>
                <mxCell id="93ikKU7hIqFKgZI3E3Zn-23" style="edgeStyle=none;html=1;entryX=1;entryY=0.5;entryDx=0;entryDy=0;" parent="1" source="93ikKU7hIqFKgZI3E3Zn-20" target="93ikKU7hIqFKgZI3E3Zn-28" edge="1">
                    <mxGeometry relative="1" as="geometry">
                        <mxPoint x="720" y="530" as="targetPoint"/>
                        <Array as="points">
                            <mxPoint x="720" y="390"/>
                            <mxPoint x="720" y="570"/>
                        </Array>
                    </mxGeometry>
                </mxCell>
                <mxCell id="93ikKU7hIqFKgZI3E3Zn-20" value="Make variable to check for pure and half blood based on last names" style="rounded=1;whiteSpace=wrap;html=1;strokeWidth=1;fillColor=none;" parent="1" vertex="1">
                    <mxGeometry x="500" y="360" width="120" height="60" as="geometry"/>
                </mxCell>
                <mxCell id="93ikKU7hIqFKgZI3E3Zn-25" value="" style="edgeStyle=none;html=1;endArrow=none;" parent="1" source="93ikKU7hIqFKgZI3E3Zn-20" target="93ikKU7hIqFKgZI3E3Zn-24" edge="1">
                    <mxGeometry relative="1" as="geometry">
                        <mxPoint x="560" y="500" as="targetPoint"/>
                        <mxPoint x="560" y="420" as="sourcePoint"/>
                    </mxGeometry>
                </mxCell>
                <mxCell id="93ikKU7hIqFKgZI3E3Zn-24" value="Else === &quot;muggle&quot;" style="text;html=1;align=center;verticalAlign=middle;resizable=0;points=[];autosize=1;strokeColor=none;fillColor=none;" parent="1" vertex="1">
                    <mxGeometry x="500" y="440" width="120" height="30" as="geometry"/>
                </mxCell>
                <mxCell id="93ikKU7hIqFKgZI3E3Zn-26" value="Else if (bloodStatus === &quot;pure&quot;)" style="text;html=1;align=center;verticalAlign=middle;resizable=0;points=[];autosize=1;strokeColor=none;fillColor=none;" parent="1" vertex="1">
                    <mxGeometry x="270" y="440" width="190" height="30" as="geometry"/>
                </mxCell>
                <mxCell id="93ikKU7hIqFKgZI3E3Zn-27" value="If (bloodStatus === &quot;half&quot;)" style="text;html=1;align=center;verticalAlign=middle;resizable=0;points=[];autosize=1;strokeColor=none;fillColor=none;" parent="1" vertex="1">
                    <mxGeometry x="650" y="440" width="160" height="30" as="geometry"/>
                </mxCell>
                <mxCell id="93ikKU7hIqFKgZI3E3Zn-29" style="edgeStyle=none;html=1;" parent="1" source="93ikKU7hIqFKgZI3E3Zn-28" target="93ikKU7hIqFKgZI3E3Zn-2" edge="1">
                    <mxGeometry relative="1" as="geometry"/>
                </mxCell>
                <mxCell id="93ikKU7hIqFKgZI3E3Zn-28" value="Set bloodStatus" style="rounded=1;whiteSpace=wrap;html=1;strokeWidth=1;fillColor=none;" parent="1" vertex="1">
                    <mxGeometry x="500" y="540" width="120" height="60" as="geometry"/>
                </mxCell>
            </root>
        </mxGraphModel>
    </diagram>
    <diagram id="BE5vwbHeAJIMKiZ4UG5G" name="HackTheSystem">
        <mxGraphModel dx="1211" dy="817" grid="1" gridSize="10" guides="1" tooltips="1" connect="1" arrows="1" fold="1" page="1" pageScale="1" pageWidth="1169" pageHeight="1654" math="0" shadow="0">
            <root>
                <mxCell id="0"/>
                <mxCell id="1" parent="0"/>
                <mxCell id="gJkMOD2Mm5ziAD6w-VTw-1" style="edgeStyle=none;html=1;entryX=0.5;entryY=0;entryDx=0;entryDy=0;" parent="1" edge="1">
                    <mxGeometry relative="1" as="geometry">
                        <mxPoint x="559.5" y="130" as="targetPoint"/>
                        <mxPoint x="559.5" y="80" as="sourcePoint"/>
                    </mxGeometry>
                </mxCell>
                <mxCell id="gJkMOD2Mm5ziAD6w-VTw-2" value="" style="verticalLabelPosition=bottom;verticalAlign=top;html=1;shape=mxgraph.flowchart.or;strokeWidth=5;fillColor=none;" parent="1" vertex="1">
                    <mxGeometry x="540" y="760" width="40" height="40" as="geometry"/>
                </mxCell>
                <mxCell id="gJkMOD2Mm5ziAD6w-VTw-3" value="" style="strokeWidth=2;html=1;shape=mxgraph.flowchart.start_2;whiteSpace=wrap;fillColor=none;" parent="1" vertex="1">
                    <mxGeometry x="540" y="40" width="40" height="40" as="geometry"/>
                </mxCell>
                <mxCell id="gJkMOD2Mm5ziAD6w-VTw-23" value="Else" style="edgeStyle=none;html=1;exitX=0.5;exitY=1;exitDx=0;exitDy=0;entryX=0.5;entryY=0;entryDx=0;entryDy=0;" parent="1" source="gJkMOD2Mm5ziAD6w-VTw-18" target="gJkMOD2Mm5ziAD6w-VTw-20" edge="1">
                    <mxGeometry relative="1" as="geometry">
                        <mxPoint x="560" y="220" as="targetPoint"/>
                        <Array as="points"/>
                    </mxGeometry>
                </mxCell>
                <mxCell id="0Cjw1GxWL44mit2HrhMd-4" style="edgeStyle=none;html=1;entryX=0.5;entryY=0;entryDx=0;entryDy=0;" parent="1" source="gJkMOD2Mm5ziAD6w-VTw-18" target="0Cjw1GxWL44mit2HrhMd-2" edge="1">
                    <mxGeometry relative="1" as="geometry">
                        <Array as="points">
                            <mxPoint x="800" y="160"/>
                        </Array>
                    </mxGeometry>
                </mxCell>
                <mxCell id="0Cjw1GxWL44mit2HrhMd-5" value="if &quot;I&quot; exsist" style="edgeLabel;html=1;align=center;verticalAlign=middle;resizable=0;points=[];" parent="0Cjw1GxWL44mit2HrhMd-4" vertex="1" connectable="0">
                    <mxGeometry x="0.6414" y="3" relative="1" as="geometry">
                        <mxPoint as="offset"/>
                    </mxGeometry>
                </mxCell>
                <mxCell id="gJkMOD2Mm5ziAD6w-VTw-18" value="hackTheSystem();" style="rounded=1;whiteSpace=wrap;html=1;strokeWidth=1;fillColor=none;" parent="1" vertex="1">
                    <mxGeometry x="500" y="130" width="120" height="60" as="geometry"/>
                </mxCell>
                <mxCell id="0Cjw1GxWL44mit2HrhMd-7" style="edgeStyle=none;html=1;" parent="1" source="gJkMOD2Mm5ziAD6w-VTw-20" target="0Cjw1GxWL44mit2HrhMd-8" edge="1">
                    <mxGeometry relative="1" as="geometry">
                        <mxPoint x="560" y="380" as="targetPoint"/>
                    </mxGeometry>
                </mxCell>
                <mxCell id="gJkMOD2Mm5ziAD6w-VTw-20" value="Initialize hacking and add me to the system" style="rounded=1;whiteSpace=wrap;html=1;strokeWidth=1;fillColor=none;" parent="1" vertex="1">
                    <mxGeometry x="500" y="270" width="120" height="60" as="geometry"/>
                </mxCell>
                <mxCell id="0Cjw1GxWL44mit2HrhMd-6" style="edgeStyle=none;html=1;entryX=1;entryY=0.5;entryDx=0;entryDy=0;entryPerimeter=0;" parent="1" source="0Cjw1GxWL44mit2HrhMd-2" target="gJkMOD2Mm5ziAD6w-VTw-2" edge="1">
                    <mxGeometry relative="1" as="geometry">
                        <Array as="points">
                            <mxPoint x="800" y="780"/>
                        </Array>
                    </mxGeometry>
                </mxCell>
                <mxCell id="0Cjw1GxWL44mit2HrhMd-2" value="console log that I am already added" style="rounded=1;whiteSpace=wrap;html=1;strokeWidth=1;fillColor=none;" parent="1" vertex="1">
                    <mxGeometry x="740" y="280" width="120" height="60" as="geometry"/>
                </mxCell>
                <mxCell id="j9yf7AYACX-Z87ENkA5L-2" style="edgeStyle=none;html=1;entryX=0.5;entryY=0;entryDx=0;entryDy=0;" edge="1" parent="1" source="0Cjw1GxWL44mit2HrhMd-8" target="j9yf7AYACX-Z87ENkA5L-1">
                    <mxGeometry relative="1" as="geometry"/>
                </mxCell>
                <mxCell id="0Cjw1GxWL44mit2HrhMd-8" value="Randommize bloodStatus" style="rounded=1;whiteSpace=wrap;html=1;strokeWidth=1;fillColor=none;" parent="1" vertex="1">
                    <mxGeometry x="500" y="390" width="120" height="60" as="geometry"/>
                </mxCell>
                <mxCell id="0Cjw1GxWL44mit2HrhMd-11" style="edgeStyle=none;html=1;" parent="1" source="0Cjw1GxWL44mit2HrhMd-10" target="gJkMOD2Mm5ziAD6w-VTw-2" edge="1">
                    <mxGeometry relative="1" as="geometry"/>
                </mxCell>
                <mxCell id="0Cjw1GxWL44mit2HrhMd-10" value="Rebuild list" style="rounded=1;whiteSpace=wrap;html=1;strokeWidth=1;fillColor=none;" parent="1" vertex="1">
                    <mxGeometry x="500" y="630" width="120" height="60" as="geometry"/>
                </mxCell>
                <mxCell id="j9yf7AYACX-Z87ENkA5L-3" style="edgeStyle=none;html=1;entryX=0.5;entryY=0;entryDx=0;entryDy=0;" edge="1" parent="1" source="j9yf7AYACX-Z87ENkA5L-1" target="0Cjw1GxWL44mit2HrhMd-10">
                    <mxGeometry relative="1" as="geometry"/>
                </mxCell>
                <mxCell id="j9yf7AYACX-Z87ENkA5L-1" value="Remove inq. squad members after time period" style="rounded=1;whiteSpace=wrap;html=1;strokeWidth=1;fillColor=none;" vertex="1" parent="1">
                    <mxGeometry x="500" y="490" width="120" height="60" as="geometry"/>
                </mxCell>
            </root>
        </mxGraphModel>
    </diagram>
</mxfile>